/* XPM */
static char * by15_xpm[] = {
"15 15 4 1",
" 	c None",
".	c #FF7D7D",
"+	c #FF0000",
"@	c #00C000",
".+.++++++++++++",
"+.+++++++++++++",
".+.++++++++++++",
"+.+++++++++++++",
".+.++++++++++++",
"+.+++++++++++++",
".+.++++++++++++",
"+.+++++++++++++",
".+.++++++++++++",
"+.+++++++++++++",
".+.++++++++++++",
"+.+++++++++++++",
".+.@@@@@@@@@@@@",
"+.+@@@@@@@@@@@@",
".+.@@@@@@@@@@@@"};
