/* XPM */
static char * by48_xpm[] = {
"48 48 4 1",
" 	c None",
".	c #FF0000",
"+	c #FF7D7D",
"@	c #00C000",
".+......+.......................................",
".+......+.......................................",
".+.+..+.+.......................................",
".++++++++.......................................",
".++++++++.......................................",
".+.+..+.+.......................................",
".+......+.......................................",
".++.++.++.......................................",
".+......+.......................................",
".+......+.......................................",
".+.+..+.+.......................................",
".+.++++.+.......................................",
".+.++++.+.......................................",
".+.++++.+.......................................",
".+......+.......................................",
".+......+.......................................",
".+......+.......................................",
".+..++..+.......................................",
".+..++..+.......................................",
".+..++..+.......................................",
".+..++..+.......................................",
".+.+..+.+.......................................",
".+.+..+.+.......................................",
".++.++.++.......................................",
".++.++.++.......................................",
".+.+..+.+.......................................",
".+.+..+.+.......................................",
".+..++..+.......................................",
".+..++..+.......................................",
".+..++..+.......................................",
".+......+.......................................",
".+......+.......................................",
".+......+.......................................",
".+.++++.+.......................................",
".+.++++.+.......................................",
".+.++++.+.......................................",
".+.+..+.+.......................................",
".+......+.......................................",
".+......+.@@@@@@@@@@@@@@@@@@@@@@@@@@@@@@@@@@@@@@",
".++.++.++.@@@@@@@@@@@@@@@@@@@@@@@@@@@@@@@@@@@@@@",
".+......+.@@@@@@@@@@@@@@@@@@@@@@@@@@@@@@@@@@@@@@",
".+......+.@@@@@@@@@@@@@@@@@@@@@@@@@@@@@@@@@@@@@@",
".+.+..+.+.@@@@@@@@@@@@@@@@@@@@@@@@@@@@@@@@@@@@@@",
".++++++++.@@@@@@@@@@@@@@@@@@@@@@@@@@@@@@@@@@@@@@",
".++++++++.@@@@@@@@@@@@@@@@@@@@@@@@@@@@@@@@@@@@@@",
".+.+..+.+.@@@@@@@@@@@@@@@@@@@@@@@@@@@@@@@@@@@@@@",
".+......+.@@@@@@@@@@@@@@@@@@@@@@@@@@@@@@@@@@@@@@",
".+......+.@@@@@@@@@@@@@@@@@@@@@@@@@@@@@@@@@@@@@@"};
