/* XPM */
static char * en15_xpm[] = {
/* width height ncolors chars_per_pixel */
"15 15 3 1",
/* colors */
" 	c red",
".	c white",
"X	c blue",
/* pixels */
"  .XXX. .XXX.  ",
".  .XX. .XX.  .",
"X.  .X. .X.  .X",
"XX.  .. ..  .XX",
"XXX.  . .  .XXX",
"XXXX. . . .XXXX",
"....... .......",
"               ",
"....... .......",
"XXXX. . . .XXXX",
"XXX.  . .  .XXX",
"XX.  .. ..  .XX",
"X.  .X. .X.  .X",
".  .XX. .XX.  .",
"  .XXX. .XXX.  "};
