/* XPM */
static char * en48_xpm[] = {
/* width height num_colors chars_per_pixel */
"48 48 3 1",
/* colors */
" 	c red",
".	c white",
"X	c blue",
/* pixels */
" ...XXXXXXXXXXXXXXX..       ..XXXXXXXXXXXXXX... ",
"  ...XXXXXXXXXXXXXX..       ..XXXXXXXXXXXXX...  ",
"   ...XXXXXXXXXXXXX..       ..XXXXXXXXXXXX...   ",
"    ...XXXXXXXXXXXX..       ..XXXXXXXXXXX...    ",
".    ...XXXXXXXXXXX..       ..XXXXXXXXXX...    .",
"..    ...XXXXXXXXXX..       ..XXXXXXXXX...    ..",
"...    ...XXXXXXXXX..       ..XXXXXXXX...    ...",
"X...    ...XXXXXXXX..       ..XXXXXXX...    ...X",
"XX...    ...XXXXXXX..       ..XXXXXX...    ...XX",
"XXX...    ...XXXXXX..       ..XXXXX...    ...XXX",
"XXXX...    ...XXXXX..       ..XXXX...    ...XXXX",
"XXXXX...    ...XXXX..       ..XXX...    ...XXXXX",
"XXXXXX...    ...XXX..       ..XX...    ...XXXXXX",
"XXXXXXX...    ...XX..       ..X...    ...XXXXXXX",
"XXXXXXXX...    ...X..       .....    ...XXXXXXXX",
"XXXXXXXXX...    .....       ....    ...XXXXXXXXX",
"XXXXXXXXXX...    ....       ...    ...XXXXXXXXXX",
"XXXXXXXXXXX...    ...       ..    ...XXXXXXXXXXX",
"XXXXXXXXXXXX...   ...       ..   ...XXXXXXXXXXXX",
".....................       ....................",
".....................       ....................",
"                                                ",
"                                                ",
"                                                ",
"                                                ",
"                                                ",
"                                                ",
"                                                ",
".....................       ....................",
".....................       ....................",
"XXXXXXXXXXXX...   ...       ..   ...XXXXXXXXXXXX",
"XXXXXXXXXXX...    ...       ..    ...XXXXXXXXXXX",
"XXXXXXXXXX...    ....       ...    ...XXXXXXXXXX",
"XXXXXXXXX...    .....       ....    ...XXXXXXXXX",
"XXXXXXXX...    ...X..       .....    ...XXXXXXXX",
"XXXXXXX...    ...XX..       ..X...    ...XXXXXXX",
"XXXXXX...    ...XXX..       ..XX...    ...XXXXXX",
"XXXXX...    ...XXXX..       ..XXX...    ...XXXXX",
"XXXX...    ...XXXXX..       ..XXXX...    ...XXXX",
"XXX...    ...XXXXXX..       ..XXXXX...    ...XXX",
"XX...    ...XXXXXXX..       ..XXXXXX...    ...XX",
"X...    ...XXXXXXXX..       ..XXXXXXX...    ...X",
"...    ...XXXXXXXXX..       ..XXXXXXXX...    ...",
"..    ...XXXXXXXXXX..       ..XXXXXXXXX...    ..",
".    ...XXXXXXXXXXX..       ..XXXXXXXXXX...    .",
"    ...XXXXXXXXXXXX..       ..XXXXXXXXXXX...    ",
"   ...XXXXXXXXXXXXX..       ..XXXXXXXXXXXX...   ",
"  ...XXXXXXXXXXXXXX..       ..XXXXXXXXXXXXX...  "};
