/* XPM */
static char * il15_xpm[] = {
"15 15 37 1",
" 	c #003CFF",
".	c #2054FF",
"+	c #FFFFFF",
"@	c #D5DFFF",
"#	c #FBFCFF",
"$	c #F0F4FF",
"%	c #2256FF",
"&	c #AEC1FF",
"*	c #FEFEFF",
"=	c #D1DCFF",
"-	c #CEDAFF",
";	c #5E84FF",
">	c #194FFF",
",	c #C4D1FF",
"'	c #F3F6FF",
")	c #6287FF",
"!	c #033FFF",
"~	c #023DFF",
"{	c #2C5EFF",
"]	c #F6F8FF",
"^	c #E7EDFF",
"/	c #043FFF",
"(	c #9EB4FF",
"_	c #A6BBFF",
":	c #4772FF",
"<	c #7092FF",
"[	c #527AFF",
"}	c #1149FF",
"|	c #0540FF",
"1	c #4974FF",
"2	c #567EFF",
"3	c #D8E1FF",
"4	c #C0CFFF",
"5	c #0641FF",
"6	c #89A5FF",
"7	c #8CA7FF",
"8	c #F4F7FF",
"               ",
"...............",
"+++++++++++++++",
"+++++++@#++++++",
"++++++$%&++++++",
"+++*=-; >,-'+++",
"++++)!   ~{]+++",
"++++^/    (++++",
"++++_     :*+++",
"++++<[} |123+++",
"++++++456++++++",
"++++++*78++++++",
"+++++++++++++++",
"...............",
"               "};
