/* XPM */
static char * il_xpm[] = {
"48 48 55 1",
" 	c #003CFF",
".	c #FFFFFF",
"+	c #7898FF",
"@	c #D9E2FF",
"#	c #86A2FF",
"$	c #134BFF",
"%	c #013DFF",
"&	c #F3F6FF",
"*	c #95AEFF",
"=	c #3867FF",
"-	c #F7F9FF",
";	c #CAD6FF",
">	c #4470FF",
",	c #0C45FF",
"'	c #ECF0FF",
")	c #3C6AFF",
"!	c #3262FF",
"~	c #1F53FF",
"{	c #436FFF",
"]	c #FCFDFF",
"^	c #7192FF",
"/	c #B3C5FF",
"(	c #F8FAFF",
"_	c #0A44FF",
":	c #3363FF",
"<	c #FEFEFF",
"[	c #E2E9FF",
"}	c #7696FF",
"|	c #E1E8FF",
"1	c #FAFBFF",
"2	c #7394FF",
"3	c #AFC1FF",
"4	c #829FFF",
"5	c #3464FF",
"6	c #F5F7FF",
"7	c #C7D4FF",
"8	c #3766FF",
"9	c #FDFDFF",
"0	c #C8D5FF",
"a	c #7E9CFF",
"b	c #F1F4FF",
"c	c #F9FAFF",
"d	c #124AFF",
"e	c #0E47FF",
"f	c #0D46FF",
"g	c #DAE3FF",
"h	c #84A1FF",
"i	c #E3EAFF",
"j	c #FBFCFF",
"k	c #7797FF",
"l	c #C3D1FF",
"m	c #4571FF",
"n	c #B9C9FF",
"o	c #EBF0FF",
"p	c #AFC2FF",
"                                                ",
"                                                ",
"                                                ",
"                                                ",
"                                                ",
"                                                ",
"................................................",
"................................................",
"................................................",
"................................................",
"................................................",
"........................+.......................",
".......................@ #......................",
".......................$ %&.....................",
"......................*   =.....................",
".....................-%    ;....................",
".....................>     ,....................",
"............')))))))!       ~)))))){]...........",
".............^                     /............",
".............(_                   :<............",
"............../                   [.............",
"..............<:                 }..............",
"...............|                ,1..............",
"................2               3...............",
"................4               5...............",
"...............6%                7..............",
"...............8                 _9.............",
"..............0                   a.............",
".............9_                    b............",
".............a                     !............",
"............cdeeeeee_       feeeeeeeg...........",
".....................8     h....................",
".....................i    dj....................",
"......................k   l.....................",
"......................c, m......................",
".......................n o......................",
"........................p.......................",
"................................................",
"................................................",
"................................................",
"................................................",
"................................................",
"                                                ",
"                                                ",
"                                                ",
"                                                ",
"                                                ",
"                                                "};
