/* XPM */
static char * su15_xpm[] = {
/* width height num_colors chars_per_pixel */
"15 15 2 1",
/* colors */
" 	c #ff0000",
".	c #ffff00",
/* pixels */
"   .           ",
"   .           ",
"  ...          ",
".......        ",
"  ...          ",
" .....         ",
" .. ..         ",
"..   ..        ",
"               ",
"               ",
"               ",
"               ",
"               ",
"               ",
"               "};
