/* XPM */
static char * su48_[] = {
"48 48 2 1",
" 	c red",
".	c yellow",
"                                                ",
"       .                                        ",
"       .                                        ",
"      ...                                       ",
"      ...                                       ",
"      ...                                       ",
"     .....                                      ",
"................                                ",
" ..............                                 ",
"  ...........                                   ",
"    .......                                     ",
"    .......                                     ",
"   .........                                    ",
"   .........                                    ",
"  ....   ....                                   ",
"  ...     ...                                   ",
" ...       ...                                  ",
" .           .                                  ",
"                                                ",
"                                                ",
"                                                ",
"                                                ",
"                                                ",
"                                                ",
"                                                ",
"                                                ",
"                                                ",
"                                                ",
"                                                ",
"                                                ",
"                                                ",
"                                                ",
"                                                ",
"                                                ",
"                                                ",
"                                                ",
"                                                ",
"                                                ",
"                                                ",
"                                                ",
"                                                ",
"                                                ",
"                                                ",
"                                                ",
"                                                ",
"                                                ",
"                                                ",
"                                                "};
