/* XPM */
static char *ua15[] = {
/* width height num_colors chars_per_pixel */
"    15    15        2            1",
/* colors */
". c #00f2ff",
"# c #fffa00",
/* pixels */
"...............",
"...............",
"...............",
"...............",
"...............",
"...............",
"...............",
"...............",
"###############",
"###############",
"###############",
"###############",
"###############",
"###############",
"###############"
};
